<svg width="140" height="140" viewBox="0 0 140 140" fill="none" xmlns="http://www.w3.org/2000/svg">
<path d="M84.2205 104.909L74.3379 82.3562C73.4098 80.2128 72.1114 78.5898 70.4455 77.498C68.7823 76.4062 66.8241 75.8616 64.568 75.8616H62.041V104.909H48.8347V34.7324H69.292C73.1576 34.7324 76.6664 35.0624 79.8158 35.725C82.9651 36.3876 85.6477 37.4901 87.8688 39.0272C90.09 40.567 91.7961 42.5709 92.9979 45.0416C94.1997 47.5122 94.7953 50.5355 94.7953 54.114C94.7953 56.692 94.4197 58.9829 93.6686 60.9868C92.9175 62.9907 91.8605 64.7209 90.5031 66.1668C89.1404 67.6181 87.5201 68.7904 85.6423 69.6864C83.7645 70.5823 81.715 71.2074 79.4939 71.5642C81.2107 71.9236 82.7881 72.8974 84.2205 74.4935C85.6477 76.0843 87.0855 78.3833 88.5127 81.3877L99.7366 104.909H84.2205ZM80.9424 55.4043C80.9424 51.968 79.848 49.4973 77.6643 47.9951C75.4807 46.4901 72.2107 45.739 67.8434 45.739H62.041V65.5525H67.4142C69.453 65.5525 71.304 65.3379 72.9698 64.906C74.633 64.4795 76.0602 63.833 77.2405 62.9746C78.4208 62.1161 79.3329 61.0512 79.9767 59.7796C80.6205 58.5108 80.9424 57.0514 80.9424 55.4043Z" fill="#40DDB6"/>
<path d="M69.8205 132.641C35.1804 132.641 7 104.461 7 69.8205C7 35.1804 35.1804 7 69.8205 7C104.461 7 132.641 35.1804 132.641 69.8205C132.641 104.461 104.461 132.641 69.8205 132.641ZM69.8205 13.8379C38.9521 13.8379 13.8379 38.9521 13.8379 69.8205C13.8379 100.689 38.9521 125.806 69.8205 125.806C100.689 125.806 125.806 100.689 125.806 69.8205C125.806 38.9521 100.689 13.8379 69.8205 13.8379Z" fill="#40DDB6"/>
</svg>
